# xmcd
#
# Track frame offsets: 
#        150
#        46018
#        63299
#        71559
#        102844
#        113440
#        146153
#        171037
#        192477
#        222797
#
# Disc length: 3136 seconds
#
# Revision: 1
# Processed by: cddbd v1.5.2PL0 Copyright (c) Steve Scherf et al.
# Submitted via: ExactAudioCopy v0.99pb5
#
DISCID=890c3e0a
DTITLE=Sophia Domancich - Triana Moods
DYEAR=2007
DGENRE=Jazz
TTITLE0=Triana moods
TTITLE1=Drôle de sujet
TTITLE2=Funerals prélude
TTITLE3=Funerals
TTITLE4=Lonely woman prélude
TTITLE5=Lonely woman
TTITLE6=Monkey business
TTITLE7=Démons et mères veillent
TTITLE8=En el barrio de Triana
TTITLE9=Creole blues
EXTD=YEAR: 2007
EXTT0=
EXTT1=
EXTT2=
EXTT3=
EXTT4=
EXTT5=
EXTT6=
EXTT7=
EXTT8=
EXTT9=
PLAYORDER=
